HIERARCHY
ROOT Hips
{
	OFFSET 0.000000 0.000000 0.000000
	CHANNELS 6 Xposition Yposition Zposition Zrotation Yrotation Xrotation 
	JOINT LHipJoint
	{
		OFFSET 0.000000 0.000000 0.000000
		CHANNELS 3 Zrotation Yrotation Xrotation
		JOINT LeftUpLeg
		{
			OFFSET 1.363060 -1.794630 0.839290
			CHANNELS 3 Zrotation Yrotation Xrotation
			JOINT LeftLeg
			{
				OFFSET 2.448110 -6.726130 0.000000
				CHANNELS 3 Zrotation Yrotation Xrotation
				JOINT LeftFoot
				{
					OFFSET 2.562200 -7.039590 0.000000
					CHANNELS 3 Zrotation Yrotation Xrotation
					JOINT LeftToeBase
					{
						OFFSET 0.157640 -0.433110 2.322550
						CHANNELS 3 Zrotation Yrotation Xrotation
						End Site
						{
							OFFSET 0.000000 0.000000 0.000000
						}
					}
				}
			}
		}
	}
	JOINT RHipJoint
	{
		OFFSET 0.000000 0.000000 0.000000
		CHANNELS 3 Zrotation Yrotation Xrotation
		JOINT RightUpLeg
		{
			OFFSET -1.305520 -1.794630 0.839290
			CHANNELS 3 Zrotation Yrotation Xrotation
			JOINT RightLeg
			{
				OFFSET -2.542530 -6.985550 0.000000
				CHANNELS 3 Zrotation Yrotation Xrotation
				JOINT RightFoot
				{
					OFFSET -2.568260 -7.056230 0.000000
					CHANNELS 3 Zrotation Yrotation Xrotation
					JOINT RightToeBase
					{
						OFFSET -0.164730 -0.452590 2.363150
						CHANNELS 3 Zrotation Yrotation Xrotation
						End Site
						{
							OFFSET 0.000000 0.000000 0.000000
						}
					}
				}
			}
		}
	}
	JOINT LowerBack
	{
		OFFSET 0.000000 0.000000 0.000000
		CHANNELS 3 Zrotation Yrotation Xrotation
		JOINT Spine
		{
			OFFSET 0.028270 2.035590 -0.193380
			CHANNELS 3 Zrotation Yrotation Xrotation
			JOINT Spine1
			{
				OFFSET 0.056720 2.048850 -0.042750
				CHANNELS 3 Zrotation Yrotation Xrotation
				JOINT Neck
				{
					OFFSET 0.000000 0.000000 0.000000
					CHANNELS 3 Zrotation Yrotation Xrotation
					JOINT Neck1
					{
						OFFSET -0.054170 1.746240 0.172020
						CHANNELS 3 Zrotation Yrotation Xrotation
						JOINT Head
						{
							OFFSET 0.104070 1.761360 -0.123970
							CHANNELS 3 Zrotation Yrotation Xrotation
							End Site
							{
								OFFSET 0.000000 0.000000 0.000000
							}
						}
					}
				}
				JOINT LeftShoulder
				{
					OFFSET 0.000000 0.000000 0.000000
					CHANNELS 3 Zrotation Yrotation Xrotation
					JOINT LeftArm
					{
						OFFSET 3.362410 1.200890 -0.311210
						CHANNELS 3 Zrotation Yrotation Xrotation
						JOINT LeftForeArm
						{
							OFFSET 4.983000 -0.000000 -0.000000
							CHANNELS 3 Zrotation Yrotation Xrotation
							JOINT LeftHand
							{
								OFFSET 3.483560 -0.000000 -0.000000
								CHANNELS 3 Zrotation Yrotation Xrotation
								JOINT LeftFingerBase
								{
									OFFSET 0.000000 0.000000 0.000000
									CHANNELS 3 Zrotation Yrotation Xrotation
									JOINT LeftHandIndex1
									{
										OFFSET 0.715260 -0.000000 -0.000000
										CHANNELS 3 Zrotation Yrotation Xrotation
										End Site
										{
											OFFSET 0.000000 0.000000 0.000000
										}
									}
								}
								JOINT LThumb
								{
									OFFSET 0.000000 0.000000 0.000000
									CHANNELS 3 Zrotation Yrotation Xrotation
									End Site
									{
										OFFSET 0.000000 0.000000 0.000000
									}
								}
							}
						}
					}
				}
				JOINT RightShoulder
				{
					OFFSET 0.000000 0.000000 0.000000
					CHANNELS 3 Zrotation Yrotation Xrotation
					JOINT RightArm
					{
						OFFSET -3.136600 1.374050 -0.404650
						CHANNELS 3 Zrotation Yrotation Xrotation
						JOINT RightForeArm
						{
							OFFSET -5.241900 -0.000000 -0.000000
							CHANNELS 3 Zrotation Yrotation Xrotation
							JOINT RightHand
							{
								OFFSET -3.444170 -0.000000 -0.000000
								CHANNELS 3 Zrotation Yrotation Xrotation
								JOINT RightFingerBase
								{
									OFFSET 0.000000 0.000000 0.000000
									CHANNELS 3 Zrotation Yrotation Xrotation
									JOINT RightHandIndex1
									{
										OFFSET -0.622530 -0.000000 -0.000000
										CHANNELS 3 Zrotation Yrotation Xrotation
										End Site
										{
											OFFSET 0.000000 0.000000 0.000000
										}
									}
								}
								JOINT RThumb
								{
									OFFSET 0.000000 0.000000 0.000000
									CHANNELS 3 Zrotation Yrotation Xrotation
									End Site
									{
										OFFSET 0.000000 0.000000 0.000000
									}
								}
							}
						}
					}
				}
			}
		}
	}
}
MOTION
Frames: 6
Frame Time: 0.008333
6.465321 17.854360 -15.795880 -0.782427 2.701210 8.763038 -4.675798 -1.389391 -0.449416 -14.892610 -3.382137 -23.427019 2.714362 11.505679 33.563560 1.462034 -5.570743 -16.542482 0.629400 5.076500 14.126800 2.098314 0.764645 -0.824206 18.512790 7.172535 -22.101794 -4.070671 -12.130535 36.785577 -0.838804 -3.329349 -19.802464 -0.387400 -3.996900 11.068000 -0.093446 -0.782041 -1.362850 0.983776 -1.164161 -4.013617 3.384787 -0.772582 4.024726 -5.793674 -1.138056 -11.519942 6.991119 -1.675939 3.998386 1.816400 -0.689600 1.271300 11.040555 -3.696353 2.403132 -103.943477 8.521820 38.676569 29.812047 -42.027439 -8.496820 -0.877476 2.186197 -15.150831 8.153194 9.941452 1.120200 -7.125000 0.000000 0.000000 -15.528900 37.210300 3.066900 -8.429700 2.954358 1.090597 96.184647 -7.771321 36.172581 -24.426847 35.698413 -7.526152 0.508976 -0.801296 1.199446 -30.258649 -21.919673 11.991900 7.125000 0.000000 0.000000 -2.334700 -53.907400 0.511500 
6.461391 17.854785 -15.792268 -0.800953 2.779065 8.822774 -4.672129 -1.391969 -0.458680 -14.850907 -3.444075 -23.463246 2.713724 11.504478 33.560355 1.461349 -5.583751 -16.522844 0.644500 5.135700 14.295900 2.100258 0.765702 -0.823607 18.541593 7.168278 -22.136307 -4.065754 -12.123512 36.762016 -0.839630 -3.342342 -19.820896 -0.381200 -3.965000 10.978300 -0.046159 -0.786340 -1.352576 0.967808 -1.170624 -4.006773 3.311088 -0.775168 4.032785 -5.701221 -1.150175 -11.509965 6.975500 -1.700004 3.937422 1.790100 -0.703800 1.248100 11.039188 -3.693534 2.401310 -103.872022 8.513872 38.670459 29.816495 -42.017082 -8.492854 -0.871500 2.176143 -15.055713 8.082616 9.752320 1.085000 -7.125000 0.000000 0.000000 -15.547600 37.034000 3.140200 -8.431860 2.953227 1.090082 96.267912 -7.701586 36.071234 -24.374663 35.653519 -7.500196 0.507647 -0.802719 1.448499 -30.262034 -21.825007 11.944600 7.125000 0.000000 0.000000 -2.357300 -53.804100 0.510500 
6.458735 17.855422 -15.787807 -0.785780 2.795381 8.876413 -4.672620 -1.392332 -0.465870 -14.846344 -3.561578 -23.452727 2.710394 11.497970 33.545644 1.454798 -5.493824 -16.541205 0.635800 5.101800 14.199000 2.104442 0.766572 -0.821870 18.519004 7.172169 -22.162039 -4.059924 -12.115816 36.733783 -0.848920 -3.272761 -19.848340 -0.401700 -4.069000 11.270800 -0.004830 -0.769904 -1.310541 0.932897 -1.147819 -4.010082 3.206092 -0.762750 4.004850 -5.611264 -1.171933 -11.559166 6.964804 -1.732314 3.945478 1.767100 -0.719700 1.261800 11.034979 -3.693742 2.399796 -103.800223 8.541990 38.625462 29.830064 -42.017858 -8.501783 -0.867972 2.174196 -15.017119 8.111453 9.721560 1.084600 -7.125000 0.000000 0.000000 -15.518900 37.008600 3.144100 -8.438036 2.958871 1.092850 96.351152 -7.730849 36.101671 -24.074405 35.343873 -7.345275 0.500379 -0.803510 2.650435 -31.145189 -20.584771 11.673700 7.125000 0.000000 0.000000 -3.498200 -52.598100 0.654800 
6.455867 17.856803 -15.784620 -0.764489 2.851893 8.941579 -4.670916 -1.395426 -0.473898 -14.853031 -3.608020 -23.490282 2.706876 11.492363 33.528831 1.454349 -5.510203 -16.524299 0.629200 5.075500 14.124100 2.107082 0.768586 -0.821179 18.495352 7.164034 -22.208085 -4.053403 -12.107191 36.703105 -0.855859 -3.233516 -19.879100 -0.430200 -4.209300 11.666300 0.000429 -0.753788 -1.303165 0.908145 -1.125372 -4.009343 3.145673 -0.751140 3.999657 -5.521344 -1.190801 -11.511461 6.936419 -1.766228 3.885210 1.736400 -0.739500 1.231500 11.032912 -3.693371 2.398782 -103.738114 8.541276 38.615049 29.823971 -42.005434 -8.500606 -0.865404 2.173516 -15.064130 8.151645 9.702440 1.086600 -7.125000 0.000000 0.000000 -15.485400 36.993200 3.142900 -8.439005 2.959958 1.094577 96.437254 -7.734173 35.984770 -24.064757 35.340978 -7.341820 0.500079 -0.804305 2.864593 -31.227851 -20.458298 11.640900 7.125000 0.000000 0.000000 -3.605100 -52.472600 0.663800 
6.453105 17.858927 -15.779415 -0.762330 2.809600 8.992676 -4.668041 -1.397135 -0.474454 -14.851761 -3.565988 -23.517835 2.701379 11.485726 33.504629 1.457875 -5.500176 -16.562032 0.689100 5.306900 14.786000 2.109411 0.769205 -0.822475 18.494875 7.240543 -22.200421 -4.045575 -12.096518 36.666698 -0.854578 -3.265297 -19.894745 -0.426000 -4.188800 11.608400 0.015431 -0.711088 -1.290738 0.883563 -1.068514 -4.009608 3.094686 -0.722010 3.988396 -5.491949 -1.206939 -11.522788 6.951084 -1.791281 3.904270 1.734800 -0.751100 1.241700 11.030472 -3.695300 2.397279 -103.695790 8.556461 38.544764 29.789562 -41.965849 -8.480385 -0.859600 2.167370 -15.228239 8.158911 9.536077 1.062700 -7.125000 0.000000 0.000000 -15.453500 36.837900 3.196700 -8.438560 2.964354 1.097540 96.476141 -7.809214 35.967518 -24.164144 35.447663 -7.394818 0.502413 -0.803625 2.808002 -31.214675 -20.625667 11.728900 7.125000 0.000000 0.000000 -3.570300 -52.658400 0.673600 
6.450237 17.860521 -15.774635 -0.758875 2.809603 9.045158 -4.666389 -1.398620 -0.477700 -14.843463 -3.578458 -23.534357 2.695089 11.477196 33.475965 1.458737 -5.489793 -16.576332 0.712000 5.392500 15.031500 2.112442 0.770135 -0.822599 18.493234 7.282739 -22.201969 -4.037085 -12.084792 36.625789 -0.863990 -3.222639 -19.945869 -0.455200 -4.328400 12.002600 0.037516 -0.682514 -1.278128 0.859240 -1.030490 -4.009020 3.031789 -0.702315 3.980170 -5.428539 -1.224971 -11.521022 6.941941 -1.820393 3.898656 1.717400 -0.766100 1.239900 11.027933 -3.695543 2.396265 -103.641137 8.569680 38.506645 29.775201 -41.945152 -8.473870 -0.855088 2.165017 -15.294119 8.196856 9.462766 1.056300 -7.125000 0.000000 0.000000 -15.412500 36.771500 3.213600 -8.439634 2.967760 1.099896 96.537327 -7.845034 35.932295 -24.153136 35.440742 -7.390639 0.502014 -0.803542 3.051285 -31.388293 -20.464891 11.717400 7.125000 0.000000 0.000000 -3.777900 -52.512500 0.699300 
